# xmcd CD database file
#
# Track frame offsets:
#	182
#	22407
#	35180
#	61647
#	77540
#	101805
#	132812
#	148710
#	157747
#	173232
#	183390
#	198367
#	207447
#
# Disc length: 2892 seconds
#
# Revision: 0
# Processed by: cddbd v1.5.1PL0 Copyright (c) Steve Scherf et al.
# Submitted via: CDex 1.51
#
DISCID=b40b4a0d
DTITLE=Louis Armstrong - Blueberry Hill
DYEAR=1962
DGENRE=Jazz
TTITLE0=That's my home
TTITLE1=Georgia on my mind
TTITLE2=Strutting with some barbecue
TTITLE3=C'est si bon
TTITLE4=Jazz me blues
TTITLE5=Basin Street blues
TTITLE6=Blueberry Hill
TTITLE7=Margie
TTITLE8=Mack the knife
TTITLE9=Lover come back to me
TTITLE10=Saint Louis blues
TTITLE11=After you've gone
TTITLE12=Jeepers Creepers
EXTD=YEAR: 1962
EXTT0=
EXTT1=
EXTT2=
EXTT3=
EXTT4=
EXTT5=
EXTT6=
EXTT7=
EXTT8=
EXTT9=
EXTT10=
EXTT11=
EXTT12=
PLAYORDER=
